PathFileType	4	(X/Y/Z)	c:/Users/goper/Files/vsCode/490R/osim_files/A01/A01_Fast_06.trc
DataRate	CameraRate	NumFrames	NumMarkers	Units                	OrigDataRate	OrigDataStartFrame	OrigNumFrames
120.00	120.00	10	36	mm	120.0	612	1222
                Frame#	Time	Mobility_markerset:LPSIS			Mobility_markerset:LASIS			Mobility_markerset:LTH1			Mobility_markerset:LTH2			Mobility_markerset:LTH3			Mobility_markerset:LTH4			Mobility_markerset:LLFE			Mobility_markerset:LMFE			Mobility_markerset:LSH1			Mobility_markerset:LSH2			Mobility_markerset:LSH3			Mobility_markerset:LSH4			Mobility_markerset:LLMAL			Mobility_markerset:LMMAL			Mobility_markerset:LCAL			Mobility_markerset:LMTP5			Mobility_markerset:LTOE			Mobility_markerset:LMTP1			Mobility_markerset:RPSIS			Mobility_markerset:RASIS			Mobility_markerset:RTH1			Mobility_markerset:RTH2			Mobility_markerset:RTH3			Mobility_markerset:RTH4			Mobility_markerset:RLFE			Mobility_markerset:RMFE			Mobility_markerset:RSH1			Mobility_markerset:RSH2			Mobility_markerset:RSH3			Mobility_markerset:RSH4			Mobility_markerset:RLMAL			Mobility_markerset:RMMAL			Mobility_markerset:RCAL			Mobility_markerset:RMTP1			Mobility_markerset:RTOE			Mobility_markerset:RMTP5		
		X1	Y1	Z1	X2	Y2	Z2	X3	Y3	Z3	X4	Y4	Z4	X5	Y5	Z5	X6	Y6	Z6	X7	Y7	Z7	X8	Y8	Z8	X9	Y9	Z9	X10	Y10	Z10	X11	Y11	Z11	X12	Y12	Z12	X13	Y13	Z13	X14	Y14	Z14	X15	Y15	Z15	X16	Y16	Z16	X17	Y17	Z17	X18	Y18	Z18	X19	Y19	Z19	X20	Y20	Z20	X21	Y21	Z21	X22	Y22	Z22	X23	Y23	Z23	X24	Y24	Z24	X25	Y25	Z25	X26	Y26	Z26	X27	Y27	Z27	X28	Y28	Z28	X29	Y29	Z29	X30	Y30	Z30	X31	Y31	Z31	X32	Y32	Z32	X33	Y33	Z33	X34	Y34	Z34	X35	Y35	Z35	X36	Y36	Z36

612	5.09167	42.26388	1001.25647	245.58356	-173.76466	941.85742	378.97028	20.67237	645.96130	409.82791	24.99081	599.07715	401.34164	-38.42654	633.57550	414.50671	-26.17059	590.02948	401.48459	21.85509	475.83344	373.78641	6.60051	473.93997	236.99654	161.45692	381.55527	361.21533	194.29922	347.25592	362.47986	120.02103	335.76038	357.47156	157.36273	309.39581	357.75922	353.14847	154.78772	340.15057	363.71445	162.66595	252.46127	437.29465	176.28319	299.49323	267.21838	38.97702	353.34253	241.27998	56.14103	283.07617	0.00000	0.00000	0.00000	25.87846	1000.31213	145.39975	-217.56879	953.82501	123.38131	-212.31538	649.63654	31.70016	-235.79424	612.80322	39.44696	-267.11667	678.29370	37.84578	-281.96524	638.51984	42.25876	-331.53372	509.69220	87.94239	-313.69925	518.57135	213.57544	-291.58728	296.03897	74.45707	-304.52878	250.49452	75.90901	-352.38922	305.15076	79.02157	-356.03781	260.82938	78.72670	-351.65881	83.15916	109.10917	-368.56363	106.36993	193.76459	-303.72574	53.72258	160.02243	-511.71118	65.43942	196.33960	-540.34851	93.12939	149.74899	-489.46075	49.05595	82.88683
613	5.10000	28.85676	999.39148	246.90532	-188.62010	939.94604	376.46490	0.98493	643.48303	409.31296	4.63288	596.49945	401.02029	-58.19523	631.91827	413.86368	-46.89162	588.31189	401.30063	1.44137	472.52408	374.84232	-14.54098	470.57715	237.37608	144.41750	383.47171	360.70300	178.36836	350.26865	361.67526	104.81399	336.18936	357.61697	142.80652	311.13177	357.40964	343.80054	163.11171	337.40088	352.62460	170.91583	251.09705	426.57004	189.59821	296.27649	266.14551	40.87821	352.73563	238.39774	56.45527	282.63321	0.00000	0.00000	0.00000	13.09282	1000.05823	146.10573	-231.25293	954.01813	120.83876	-225.29747	651.59540	30.48969	-248.93596	615.07855	38.31052	-280.31021	680.24750	34.80772	-295.28412	640.54156	39.54232	-347.44141	513.10803	89.04500	-327.77698	520.73639	211.94463	-300.47055	298.45987	73.48890	-310.38095	254.42145	74.35418	-361.57281	305.62665	78.36547	-363.46445	261.66049	77.87689	-354.14066	83.50743	108.50223	-371.40714	106.21098	192.95348	-305.00891	54.76039	159.44302	-513.91522	60.62580	196.58829	-543.24323	87.29555	149.94499	-491.41394	44.58167	83.09000
614	5.10833	15.43036	998.00629	248.22835	-203.06480	939.00977	373.98813	-19.45931	641.04797	409.01273	-16.66066	593.93103	400.82190	-78.81181	630.57043	413.52600	-68.23418	586.76959	401.14941	-19.75253	469.25079	375.84418	-38.42039	465.72552	238.02856	126.29671	385.75772	360.24841	161.65024	353.76987	360.68130	87.87633	336.17758	357.66681	127.67087	313.34314	357.50861	333.47849	171.68192	334.16351	340.40417	179.86755	248.13676	413.86484	203.23891	292.06946	264.39532	43.57846	352.09457	232.06213	55.08116	282.11389	0.00000	0.00000	0.00000	0.23090	1000.14429	146.89824	-244.28726	954.59760	117.96769	-238.35330	652.65503	28.71049	-262.77350	616.68311	37.16252	-293.33524	681.93817	31.97812	-308.62192	642.53864	37.46852	-364.50729	514.59509	90.17863	-342.62570	523.72479	210.00899	-308.30515	299.81192	72.83533	-317.08786	255.62088	73.57157	-369.54468	305.48813	77.63972	-370.00037	261.60474	76.96703	-356.99939	83.50409	108.23623	-374.20602	105.95897	192.42738	-306.23083	55.65943	158.96475	-515.82477	55.94447	196.98340	-545.64850	81.48912	150.47157	-492.71866	40.81318	83.37252
615	5.11667	2.08231	997.04321	249.36275	-217.64058	939.48047	371.03119	-40.55461	638.64294	408.87979	-38.74078	591.40540	400.94467	-100.04172	629.49146	413.44312	-90.43250	585.35242	401.24738	-41.79325	465.74405	377.20203	-62.03255	461.24545	240.19002	107.23868	387.77121	359.09555	143.49185	356.95837	359.54230	70.68133	336.93402	357.86041	112.87906	316.20282	359.20932	322.25146	180.27386	331.11432	327.08087	188.46321	244.74278	399.48080	216.95087	287.21054	262.40878	47.12061	351.02399	225.07983	52.64355	281.81400	249.76570	51.61406	251.32907	-12.42167	1000.64960	147.70750	-258.45493	955.49396	115.23843	-251.19058	652.87054	26.79238	-276.19641	617.54620	35.89515	-305.46902	683.15552	29.59641	-321.55951	644.18872	35.81618	-379.38998	513.63562	91.42705	-357.17526	527.00360	208.24667	-315.39816	300.21906	72.18581	-323.17239	255.96219	72.94308	-377.20905	304.48398	77.06268	-376.72372	260.04422	76.82391	-358.77939	83.40762	107.76712	-376.67438	105.68256	192.09221	-307.17032	56.37440	158.70197	-517.21924	52.28601	197.58698	-547.49866	76.61700	150.52455	-493.45178	37.96763	83.23384
616	5.12500	-11.16404	996.79895	250.05891	-231.56021	940.91486	368.23721	-62.37807	636.06830	408.87744	-61.70944	588.72534	401.28952	-122.01066	628.57812	413.57761	-113.57284	584.11145	401.78110	-63.90275	462.29123	378.65771	-86.92886	455.99512	242.81548	87.43182	389.78638	358.16867	124.98447	360.35846	358.30814	52.93623	337.71793	358.04996	94.88972	317.88217	358.14581	310.07889	189.47964	327.57941	312.69290	196.91740	241.12639	383.78372	230.94482	281.63809	259.45105	52.86333	349.60916	220.42578	54.62253	281.14444	243.67882	55.12829	249.83302	-25.03427	1001.62744	148.35536	-271.71725	956.34137	112.25111	-262.95105	651.91748	25.41649	-289.15833	617.50684	34.48979	-317.24832	683.71008	27.98540	-334.02991	644.90118	34.73343	-391.66553	512.13300	91.92799	-372.14182	530.10925	206.70920	-321.42685	300.31323	71.30315	-328.54196	255.88457	72.67676	-383.02765	303.56137	76.10168	-382.18091	258.89429	76.32095	-360.41910	83.42122	107.64244	-378.81656	105.34329	191.97720	-307.82297	57.03106	158.51917	-518.10950	49.71523	197.85686	-548.80585	72.75671	150.64021	-493.90601	36.16877	82.94030
617	5.13333	-24.14060	997.27399	250.34602	-245.32173	943.22949	365.10837	-84.69294	633.43530	408.89807	-85.59568	585.93719	401.86560	-144.50821	627.88037	413.87820	-137.59554	583.07129	402.41913	-86.15295	459.00580	379.97256	-112.64175	447.98969	245.84033	67.30995	392.12741	356.89938	105.84299	363.94748	356.36307	34.82743	338.86557	358.09845	77.23758	320.30707	357.28931	296.39404	199.13127	323.79260	297.52960	205.89034	236.83249	366.72403	244.97101	275.57388	254.45779	60.76062	348.09924	213.47992	57.18079	279.90326	236.27408	59.63903	248.22238	-37.51122	1003.03082	148.64699	-284.54761	958.85461	109.62849	-274.36328	650.98132	23.65168	-301.11551	616.84338	33.02864	-327.76926	683.72650	26.20138	-345.08405	644.99677	33.69860	-401.22818	511.18814	90.89351	-387.27631	531.81177	204.39391	-326.39233	300.68936	71.21172	-333.12131	255.80725	72.67074	-388.45230	302.52640	75.50703	-386.74707	257.89850	75.95686	-361.39188	83.65517	107.73138	-380.16849	105.09047	192.04053	-308.32486	57.59846	158.36456	-518.68530	47.55597	198.32796	-549.88477	69.74376	151.11467	-494.18124	34.99766	82.88640
618	5.14167	-37.03561	998.48676	250.16344	-258.63095	946.34656	361.83304	-107.43375	630.97272	408.97858	-110.04467	583.44354	402.50534	-167.35632	627.65002	414.29272	-162.04100	582.51947	403.37540	-108.58446	455.91003	381.07892	-137.83481	441.85815	247.62611	46.64677	394.42606	355.33051	83.47750	368.13330	356.79636	16.29576	340.17334	358.06631	59.33799	323.08524	356.37689	282.76736	210.65475	319.12653	281.35153	215.14070	233.05972	348.63733	258.97144	269.31210	247.53188	69.90731	346.34598	204.97670	61.06733	279.79221	226.07530	65.68188	247.17516	-49.91148	1004.78326	148.51125	-296.41644	961.73273	107.19298	-284.62195	649.66779	21.71116	-311.14645	615.65668	31.39966	-338.08197	682.50281	24.53071	-355.36929	643.73236	32.39437	-409.07916	509.86105	88.65679	-400.51547	530.94250	201.21010	-330.35019	301.67365	71.07912	-336.54691	256.41489	72.54088	-392.95981	301.86978	74.95535	-390.57919	257.27899	75.54202	-362.50891	83.87866	107.88160	-381.25720	104.97144	192.03923	-308.66156	58.04388	158.26338	-519.10693	45.51835	198.96397	-550.60181	66.96329	151.91052	-494.30496	34.33517	83.04700
619	5.15000	-49.92580	1000.03577	249.56960	-272.00513	950.03375	358.81638	-130.53815	629.16089	409.18835	-134.75082	581.65436	403.34833	-190.43277	628.25714	414.70969	-186.83636	582.74390	404.20117	-131.12468	454.24625	382.00995	-161.89278	438.23096	245.46930	25.30344	397.29794	353.50308	65.29730	372.62418	353.53223	-3.04016	342.23380	358.10175	40.43587	326.55981	355.46106	266.86731	221.05580	314.92764	262.57132	224.18536	229.11003	329.14429	271.16785	262.52554	239.31070	77.81617	344.18365	195.97508	66.22648	281.39825	212.91455	70.17125	246.77672	-62.51604	1006.73047	148.02737	-309.16913	965.07422	104.77608	-294.21448	648.63165	19.66955	-320.17804	614.41046	30.09696	-348.09421	680.80829	23.06712	-364.71088	641.99213	31.49068	-416.64215	508.53989	86.03189	-410.90155	528.37170	198.01633	-335.23428	301.90137	71.43814	-339.91281	257.04858	72.72639	-397.17892	301.57855	74.56883	-393.88223	257.06631	75.17488	-363.26083	84.11736	107.93665	-382.12527	105.14059	192.06448	-308.97617	58.46603	158.18079	-519.66846	43.76204	199.35277	-551.20221	64.60475	152.27379	-494.39850	33.47037	82.82313
620	5.15833	-62.67448	1001.83679	248.60620	-285.05673	953.78400	355.91641	-153.30765	628.86969	409.54245	-159.15109	581.51465	404.32657	-213.27831	630.01752	415.02658	-211.15039	584.33459	405.15024	-153.69292	455.71750	382.62598	-189.75365	434.10687	250.44067	3.09845	401.66849	351.29437	43.65506	377.78912	351.36911	-23.85077	346.13107	357.92621	19.82151	331.29480	354.39026	248.03700	230.33438	310.74265	241.28853	231.13295	224.46967	306.94791	281.07379	255.13614	225.73679	87.06974	344.35693	183.04588	71.89381	283.65790	197.76987	75.29858	248.36229	-75.14598	1008.87537	147.35320	-320.89566	969.16974	102.80296	-302.82352	648.49768	18.27755	-327.55408	613.98956	29.56521	-357.53018	679.36047	21.73966	-372.97684	640.59027	30.62778	-422.65775	507.03647	84.21028	-419.15268	527.29694	197.03537	-339.28760	302.68661	71.30228	-343.18155	257.76562	72.59622	-401.20096	301.34308	74.19096	-397.14227	256.78113	74.87643	-363.90082	84.37465	108.04929	-383.79663	106.79890	194.26608	-309.21661	58.81698	158.18904	-520.17670	42.57904	199.59087	-551.66431	62.80544	152.38707	-494.67325	32.84324	82.43347
621	5.16667	-75.29557	1003.67340	247.44264	-297.97638	957.55560	353.67639	-175.33859	630.56384	410.14859	-182.24873	583.34546	405.08157	-235.66234	632.93665	415.13101	-234.14833	587.22223	405.71802	-176.19305	460.29404	382.88956	-214.15402	435.42786	251.30646	-19.56263	407.50940	348.80911	22.17438	384.12781	346.25162	-45.29023	351.85257	357.77777	-1.56009	337.52606	353.43155	226.65559	238.84764	306.68823	217.57526	237.20984	220.22659	283.64114	288.62915	248.15636	206.94943	96.71185	345.38486	162.30281	79.20856	285.85742	176.31241	81.45035	250.16394	-87.79643	1011.09998	146.46030	-332.42007	972.84448	100.86520	-310.19110	649.45355	18.30917	-333.99921	614.24805	29.30713	-365.79352	678.57800	20.97202	-379.46936	639.19141	30.07905	-428.13577	506.09598	82.58836	-426.21362	526.60602	197.10516	-343.13168	303.23828	71.12749	-346.24484	258.34186	72.44833	-405.03326	300.95932	73.88740	-400.19147	256.51355	74.63449	-364.39819	84.67469	108.19449	-384.25598	106.68920	194.33328	-309.41827	59.02577	158.22627	-520.27167	41.67612	199.97635	-551.91718	61.37738	152.68585	-494.73071	32.52882	82.28111
